<svg width="52" height="49" viewBox="0 0 52 49" fill="none" xmlns="http://www.w3.org/2000/svg">
<g id="Group 57">
<path id="Ellipse 13" d="M50.8889 24.5C50.8889 37.4284 39.8098 48 26.0278 48C12.2457 48 1.16667 37.4284 1.16667 24.5C1.16667 11.5716 12.2457 1 26.0278 1C39.8098 1 50.8889 11.5716 50.8889 24.5Z" fill="#F5D098" stroke="#6D3A96" stroke-width="2"/>
<path id="Arrow 2" d="M9.66666 23.5C8.83824 23.5 8.16666 24.1716 8.16666 25C8.16666 25.8284 8.83824 26.5 9.66666 26.5V23.5ZM42.394 26.0607C42.9798 25.4749 42.9798 24.5251 42.394 23.9393L32.848 14.3934C32.2623 13.8076 31.3125 13.8076 30.7267 14.3934C30.1409 14.9792 30.1409 15.9289 30.7267 16.5147L39.212 25L30.7267 33.4853C30.1409 34.0711 30.1409 35.0208 30.7267 35.6066C31.3125 36.1924 32.2623 36.1924 32.848 35.6066L42.394 26.0607ZM9.66666 26.5H41.3333V23.5H9.66666V26.5Z" fill="#6D3A96"/>
</g>
</svg>
