<svg width="298" height="150" viewBox="0 0 298 150" fill="none" xmlns="http://www.w3.org/2000/svg">
<g clip-path="url(#clip0_918_133)">
<rect width="298" height="150" fill="#80BAE4"/>
<path d="M-0.438788 118.52C-17.9561 76.3684 58.5612 4.01967 102.061 42.0197C145.561 80.0197 118.061 92.5197 141.061 121.52C164.061 150.52 205.813 138.725 219.561 111.02C233.584 82.762 178.561 64.5196 177.561 42.0197C176.561 19.5197 213.561 10.5197 237.561 11.0197C261.561 11.5197 281.561 18.5197 286.061 33.5197C290.561 48.5196 243.066 47.7193 237.561 71.0197C231.839 95.244 242.645 122.679 267.061 127.52C278.969 129.881 297.561 121.52 297.561 121.52" stroke="white" stroke-width="3" stroke-dasharray="30 30"/>
<rect x="50" y="62" width="21" height="15" stroke="white" stroke-width="2"/>
<path d="M49.1219 62.25L60.5 47.6283L71.8781 62.25H49.1219Z" fill="white" stroke="white" stroke-width="2"/>
<rect x="168" y="114" width="19" height="14" stroke="white" stroke-width="2"/>
<path d="M167.084 114L177.5 101.558L187.916 114H167.084Z" fill="white" stroke="white" stroke-width="2"/>
<path d="M269.5 65L279.459 77H259.541L269.5 65Z" fill="white"/>
<rect x="263" y="76" width="13" height="10" stroke="white" stroke-width="2"/>
<path d="M11.5 163C11.5 163 36 154.5 30 134C24 113.5 30.5 90 53.5 95C76.5 100 65.5 122.5 74.5 134C83.5 145.5 95.5 150.5 113.5 145.5C131.5 140.5 143.075 127.579 150 108.5C155.663 92.8987 161.145 83.7984 150 71.5C135.5 55.5 122.11 38.4271 130 23.5C139.441 5.63899 159.153 -1.27603 179 2.5C198.308 6.17358 192 39.5769 205.5 51C219 62.4231 237.609 66.79 251.5 63.5C270.5 59 285 43 285 43C285 43 297.542 27.95 295.5 12.5C294.113 2.00199 285 -12.5 285 -12.5" stroke="#6C83B1" stroke-width="5" stroke-linecap="round" stroke-dasharray="30 30"/>
</g>
<defs>
<clipPath id="clip0_918_133">
<rect width="298" height="150" fill="white"/>
</clipPath>
</defs>
</svg>
